# xmcd
#
# Track frame offsets:
#	150
#	16345
#	31560
#	48845
#	65242
#	81352
#
# Disc length: 1307 seconds
#
# Revision: 1
# Processed by: cddbd v1.5.2PL0 Copyright (c) Steve Scherf et al.
# Submitted via: audiograbber 1.83.01
#
DISCID=42051906
DTITLE=Hamlet - Swedish Fantasy [CDM)
DYEAR=1996
DGENRE=Dance
TTITLE0=Swedish Fantasy (DJ Edit)
TTITLE1=Hamlet (Pop Mix)
TTITLE2=Swedish Fantasy (Original)
TTITLE3=Hamlet (Ethnicx)
TTITLE4=Hamlet (Club Mix)
TTITLE5=Swedish Fantasy (Henry's Special)
EXTD=TR.
EXTT0=
EXTT1=
EXTT2=
EXTT3=
EXTT4=
EXTT5=
PLAYORDER=
